HIERARCHY
ROOT Hips
{
	OFFSET 0.00000 0.00000 0.00000
	CHANNELS 6 Xposition Yposition Zposition Zrotation Yrotation Xrotation 
	JOINT LHipJoint
	{
		OFFSET 0 0 0
		CHANNELS 3 Zrotation Yrotation Xrotation
		JOINT LeftHip
		{
			OFFSET 1.53139 -1.83434 0.76626
			CHANNELS 3 Zrotation Yrotation Xrotation
			JOINT LeftKnee
			{
				OFFSET 2.56112 -7.03663 0.00000
				CHANNELS 3 Zrotation Yrotation Xrotation
				JOINT LeftAnkle
				{
					OFFSET 2.59983 -7.14299 0.00000
					CHANNELS 3 Zrotation Yrotation Xrotation
					JOINT LeftToe
					{
						OFFSET 0.13742 -0.37757 2.00054
						CHANNELS 3 Zrotation Yrotation Xrotation
						End Site
						{
							OFFSET 0.00000 -0.00000 1.02897
						}
					}
				}
			}
		}
	}
	JOINT RHipJoint
	{
		OFFSET 0 0 0
		CHANNELS 3 Zrotation Yrotation Xrotation
		JOINT RightHip
		{
			OFFSET -1.40122 -1.83435 0.76627
			CHANNELS 3 Zrotation Yrotation Xrotation
			JOINT RightKnee
			{
				OFFSET -2.54052 -6.98003 0.00000
				CHANNELS 3 Zrotation Yrotation Xrotation
				JOINT RightAnkle
				{
					OFFSET -2.63179 -7.23079 0.00000
					CHANNELS 3 Zrotation Yrotation Xrotation
					JOINT RightToe
					{
						OFFSET -0.24131 -0.66299 2.03908
						CHANNELS 3 Zrotation Yrotation Xrotation
						End Site
						{
							OFFSET -0.00000 -0.00000 1.07391
						}
					}
				}
			}
		}
	}
	JOINT lowerback
	{
		OFFSET 0 0 0
		CHANNELS 3 Zrotation Yrotation Xrotation
		JOINT Chest
		{
			OFFSET 0.01174 2.10302 -0.29778
			CHANNELS 3 Zrotation Yrotation Xrotation
			JOINT Chest2
			{
				OFFSET 0.00772 2.13227 -0.01247
				CHANNELS 3 Zrotation Yrotation Xrotation
				JOINT lowerneck
				{
					OFFSET 0 0 0
					CHANNELS 3 Zrotation Yrotation Xrotation
					JOINT Neck
					{
						OFFSET -0.09219 1.60848 0.31481
						CHANNELS 3 Zrotation Yrotation Xrotation
						JOINT Head
						{
							OFFSET 0.13974 1.65456 -0.31134
							CHANNELS 3 Zrotation Yrotation Xrotation
							End Site
							{
								OFFSET 0.04742 1.69515 -0.14578
							}
						}
					}
				}
				JOINT LeftCollar
				{
					OFFSET 0 0 0
					CHANNELS 3 Zrotation Yrotation Xrotation
					JOINT LeftShoulder
					{
						OFFSET 3.24909 1.02882 -0.23993
CHANNELS 3 Zrotation Xrotation Yrotation
						JOINT LeftElbow
						{
OFFSET 0 -5.329550 -0.000000
CHANNELS 3 Zrotation Xrotation Yrotation
							JOINT LeftWrist
							{
OFFSET 0 -3.692320 -0.000000
CHANNELS 3 Zrotation Xrotation Yrotation
								JOINT lhand
								{
									OFFSET 0 0 0
CHANNELS 3 Zrotation Xrotation Yrotation
									JOINT LFingers
									{
OFFSET 0 -0.536600 -0.000000
CHANNELS 3 Zrotation Xrotation Yrotation
										End Site
										{
OFFSET 0 -0.432620 -0.000000
										}
									}
								}
								JOINT LThumb
								{
OFFSET 0 0.000000 0.000000
CHANNELS 3 Zrotation Xrotation Yrotation
									End Site
									{
OFFSET 0 -0.439220 0.439220
									}
								}
							}
						}
					}
				}
				JOINT RightCollar
				{
					OFFSET 0 0 0
					CHANNELS 3 Zrotation Yrotation Xrotation
					JOINT RightShoulder
					{
						OFFSET -3.21387 0.93002 -0.34594
CHANNELS 3 Zrotation Xrotation Yrotation
						JOINT RightElbow
						{
OFFSET 0 -5.234310 0.000000
CHANNELS 3 Zrotation Xrotation Yrotation
							JOINT RightWrist
							{
OFFSET 0 -3.553010 -0.000000
CHANNELS 3 Zrotation Xrotation Yrotation
								JOINT rhand
								{
									OFFSET 0 0 0
CHANNELS 3 Zrotation Xrotation Yrotation
									JOINT RFingers
									{
OFFSET 0 -0.772520 -0.000000
CHANNELS 3 Zrotation Xrotation Yrotation
										End Site
										{
OFFSET 0 -0.622830 -0.000000
										}
									}
								}
								JOINT RThumb
								{
OFFSET 0 0.000000 0.000000
CHANNELS 3 Zrotation Xrotation Yrotation
									End Site
									{
OFFSET 0 -0.632340 0.632340
									}
								}
							}
						}
					}
				}
			}
		}
	}
}
MOTION
Frames: 10
Frame Time: 0.008333333333333333
3.223558 17.804166 4.031615 -0.393078 -55.240337 1.018448 0.000000 0.000000 0.000000 -13.026185 -13.186407 -18.766590 1.072424 6.574584 18.463992 0.032486 -2.577923 -3.431738 1.099941 -6.664104 -18.723950 0.000000 0.000000 0.000000 30.335041 -4.046956 5.370274 -0.916062 -6.097967 17.069102 -0.692871 6.885540 -14.897664 -0.557808 -4.783885 13.293231 2.575691 2.997256 8.578482 0.334334 4.249812 0.138132 -1.613060 2.045889 -4.498429 -13.892653 -8.476697 -18.869096 11.817269 -11.827948 27.981839 4.902072 -5.228404 14.379126 0.000000 0.000000 0.000000 0.824500 8.134562 -19.090623 15.707787 -25.122763 3.520953 18.783821 17.344780 -24.802205 0.000000 0.000000 0.000000 -7.125000 0.000000 0.000000 -11.599152 55.620212 3.052784 0.000000 0.000000 0.000000 -1.036760 -3.994528 16.082387 -20.714441 -31.493441 -5.900070 -16.216551 0.017176 -9.588759 0.000000 0.000000 0.000000 7.125000 0.000000 0.000000 7.671644 20.045037 4.618631
3.155674 17.801899 4.087645 -0.440234 -55.470611 1.131545 0.000000 0.000000 0.000000 -13.086555 -13.106022 -18.753570 0.929272 6.139752 17.190976 0.028859 -2.510169 -3.260215 1.115422 -6.709511 -18.857451 0.000000 0.000000 0.000000 30.240924 -4.218868 5.675621 -0.893585 -6.024901 16.856706 -0.676612 7.143019 -14.751791 -0.561824 -4.800856 13.341294 2.576274 2.991167 8.495247 0.348001 4.239837 0.138197 -1.592980 2.042067 -4.453087 -13.836558 -8.460892 -18.978889 11.753207 -11.785845 27.988316 4.872017 -5.207611 14.388777 0.000000 0.000000 0.000000 0.797101 8.123485 -19.006870 15.656162 -25.052288 3.499059 18.691064 17.257140 -24.760814 0.000000 0.000000 0.000000 -7.125000 0.000000 0.000000 -11.675457 55.560037 3.056152 0.000000 0.000000 0.000000 -1.050881 -4.070185 16.229360 -20.713923 -31.492923 -5.899811 -16.372852 -0.072472 -9.511677 0.000000 0.000000 0.000000 7.125000 0.000000 0.000000 7.561333 20.115512 4.538894
3.086242 17.798579 4.146958 -0.473950 -55.710113 1.192181 0.000000 0.000000 0.000000 -13.184087 -13.051217 -18.691745 0.815788 5.755460 16.078810 0.030248 -2.390512 -3.285588 1.172772 -6.872597 -19.338911 0.000000 0.000000 0.000000 30.103079 -4.437418 6.043091 -0.869993 -5.946757 16.630065 -0.647533 7.508577 -14.493194 -0.584607 -4.894938 13.609170 2.653287 2.973310 8.445643 0.319614 4.220819 0.138014 -1.659797 2.031495 -4.418645 -13.731657 -8.425516 -18.982957 11.672112 -11.728876 27.909631 4.828707 -5.181430 14.330174 0.000000 0.000000 0.000000 0.806429 8.128574 -18.828353 15.599396 -24.974505 3.475122 18.553155 17.250141 -24.794118 0.000000 0.000000 0.000000 -7.125000 0.000000 0.000000 -11.833641 55.565699 3.100089 0.000000 0.000000 0.000000 -1.013285 -4.070775 16.409532 -20.733038 -31.515383 -5.909772 -16.500229 -0.115606 -9.443019 0.000000 0.000000 0.000000 7.125000 0.000000 0.000000 7.471399 20.179050 4.473340
3.016231 17.795104 4.205860 -0.489714 -55.954953 1.229819 0.000000 0.000000 0.000000 -13.307175 -12.925303 -18.649613 0.712798 5.389992 15.025700 0.031681 -2.349651 -3.334648 1.168922 -6.860161 -19.302813 0.000000 0.000000 0.000000 29.971965 -4.591113 6.433895 -0.849262 -5.877488 16.429321 -0.621178 7.822434 -14.259162 -0.593211 -4.930664 13.710877 2.732039 2.958280 8.413901 0.271616 4.205767 0.124678 -1.749961 2.022162 -4.406179 -13.629354 -8.385876 -18.956964 11.622237 -11.682205 27.841200 4.797932 -5.157753 14.274267 0.000000 0.000000 0.000000 0.851898 8.155746 -18.673888 15.540017 -24.893047 3.450102 18.496783 17.283192 -24.821737 0.000000 0.000000 0.000000 -7.125000 0.000000 0.000000 -11.904920 55.582019 3.123848 0.000000 0.000000 0.000000 -0.922782 -4.064265 16.513495 -20.724419 -31.505187 -5.905269 -16.502287 -0.083767 -9.452610 0.000000 0.000000 0.000000 7.125000 0.000000 0.000000 7.469744 20.169055 4.474118
2.945497 17.791477 4.263963 -0.480775 -56.206797 1.238110 0.000000 0.000000 0.000000 -13.464253 -12.696389 -18.638730 0.622826 5.048046 14.046243 0.032847 -2.424466 -3.404605 1.075129 -6.589921 -18.506473 0.000000 0.000000 0.000000 29.853298 -4.649346 6.853894 -0.832680 -5.821199 16.266413 -0.599544 8.055557 -14.067493 -0.580386 -4.878196 13.561442 2.808279 2.948045 8.405415 0.198421 4.196958 0.092615 -1.867721 2.015037 -4.424316 -13.533941 -8.341441 -18.895040 11.617962 -11.651178 27.792943 4.785884 -5.137997 14.226658 0.000000 0.000000 0.000000 0.946469 8.213331 -18.559885 15.477250 -24.806832 3.423674 18.559550 17.368046 -24.836376 0.000000 0.000000 0.000000 -7.125000 0.000000 0.000000 -11.847012 55.609224 3.116205 0.000000 0.000000 0.000000 -0.760262 -4.052541 16.506694 -20.674996 -31.446954 -5.879489 -16.327654 0.051871 -9.573155 0.000000 0.000000 0.000000 7.125000 0.000000 0.000000 7.592557 20.054728 4.568495
2.874876 17.786668 4.320884 -0.503567 -56.457965 1.313295 0.000000 0.000000 0.000000 -13.648224 -12.326487 -18.742732 0.549057 4.741039 13.172556 0.032550 -2.702662 -3.479400 1.015710 -6.410655 -17.981141 0.000000 0.000000 0.000000 29.788416 -4.579079 7.233329 -0.823017 -5.788258 16.171186 -0.586573 8.126933 -13.941369 -0.524803 -4.637819 12.879221 2.841311 2.942143 8.397211 0.160782 4.192593 0.020719 -1.926746 2.009993 -4.489768 -13.466546 -8.307639 -18.864846 11.586794 -11.624033 27.822100 4.768660 -5.125386 14.220400 0.000000 0.000000 0.000000 0.999745 8.331621 -18.441381 15.440251 -24.755836 3.408160 18.602513 17.500329 -24.952115 0.000000 0.000000 0.000000 -7.125000 0.000000 0.000000 -11.858191 55.733816 3.155314 0.000000 0.000000 0.000000 -0.597011 -4.049931 16.387372 -20.553560 -31.303262 -5.816351 -16.285740 0.259354 -9.714179 0.000000 0.000000 0.000000 7.125000 0.000000 0.000000 7.620402 19.911933 4.610099
2.804650 17.780439 4.378111 -0.524114 -56.703983 1.390189 0.000000 0.000000 0.000000 -13.849643 -11.944609 -18.849206 0.483062 4.453833 12.357576 0.033189 -3.029812 -3.611490 1.021296 -6.423932 -18.021288 0.000000 0.000000 0.000000 29.727950 -4.492795 7.594193 -0.816569 -5.766191 16.107426 -0.576029 8.158327 -13.834103 -0.464221 -4.366838 12.111658 2.858611 2.938221 8.389239 0.139673 4.190058 -0.050579 -1.960116 2.006295 -4.557016 -13.425036 -8.279148 -18.852180 11.552609 -11.595204 27.872060 4.755301 -5.114445 14.228498 0.000000 0.000000 0.000000 1.021487 8.442500 -18.296238 15.406499 -24.709308 3.394046 18.576281 17.629103 -25.072237 0.000000 0.000000 0.000000 -7.125000 0.000000 0.000000 -11.943288 55.848683 3.211994 0.000000 0.000000 0.000000 -0.481483 -4.036816 16.303377 -20.432079 -31.159279 -5.753303 -16.340016 0.412501 -9.835943 0.000000 0.000000 0.000000 7.125000 0.000000 0.000000 7.580131 19.783298 4.607200
2.735212 17.771630 4.436343 -0.530009 -56.939504 1.449587 0.000000 0.000000 0.000000 -14.078880 -11.582195 -18.924668 0.428133 4.196807 11.631388 0.036233 -3.394752 -3.861196 1.151234 -6.808953 -19.151994 0.000000 0.000000 0.000000 29.659742 -4.413641 7.929208 -0.814626 -5.759390 16.087800 -0.567802 8.157484 -13.745427 -0.406701 -4.091351 11.334298 2.856797 2.937055 8.381660 0.141746 4.189928 -0.108099 -1.958626 2.004741 -4.613111 -13.428534 -8.258355 -18.865977 11.520610 -11.561651 27.940916 4.751609 -5.104729 14.253437 0.000000 0.000000 0.000000 0.990655 8.518870 -18.097121 15.371391 -24.660986 3.379407 18.412402 17.735657 -25.169658 0.000000 0.000000 0.000000 -7.125000 0.000000 0.000000 -12.160348 55.912680 3.290501 0.000000 0.000000 0.000000 -0.465419 -3.998987 16.328251 -20.333169 -31.041584 -5.702196 -16.552542 0.430054 -9.911211 0.000000 0.000000 0.000000 7.125000 0.000000 0.000000 7.428105 19.693067 4.528370
2.665369 17.762922 4.495385 -0.452490 -57.090599 1.417024 0.000000 0.000000 0.000000 -14.397247 -11.165150 -18.953694 0.383068 3.970941 10.995442 0.033663 -3.926418 -4.014185 1.413147 -7.491004 -21.191396 0.000000 0.000000 0.000000 29.532553 -4.463628 8.194365 -0.817640 -5.769838 16.117948 -0.558463 8.197363 -13.651945 -0.349535 -3.790876 10.490015 2.828882 2.925014 8.369731 0.127176 4.171032 -0.137899 -1.956428 1.995194 -4.639412 -13.436078 -8.242520 -18.840521 11.514561 -11.534016 27.914167 4.755555 -5.095619 14.231635 0.000000 0.000000 0.000000 0.963413 8.564838 -17.950257 15.339369 -24.616761 3.366033 18.505642 17.830830 -25.043547 0.000000 0.000000 0.000000 -7.125000 0.000000 0.000000 -12.002831 55.805449 3.216142 0.000000 0.000000 0.000000 -0.482134 -3.943707 16.365518 -20.273562 -30.970476 -5.671474 -16.512348 0.448064 -9.928509 0.000000 0.000000 0.000000 7.125000 0.000000 0.000000 7.456462 19.677751 4.548583
2.595505 17.755025 4.554807 -0.358820 -57.199826 1.352779 0.000000 0.000000 0.000000 -14.735703 -10.755403 -18.940681 0.343259 3.763247 10.411751 0.026246 -4.517849 -4.067441 1.678645 -8.158990 -23.199638 0.000000 0.000000 0.000000 29.389510 -4.564787 8.438835 -0.823749 -5.790869 16.178724 -0.547921 8.257265 -13.549051 -0.294895 -3.487937 9.640688 2.809372 2.905483 8.367656 0.101595 4.142340 -0.153164 -1.969237 1.980794 -4.655158 -13.430720 -8.233297 -18.817999 11.514502 -11.518439 27.862395 4.756330 -5.089245 14.201114 0.000000 0.000000 0.000000 0.952784 8.590036 -17.824856 15.307629 -24.572888 3.352798 18.688121 17.930766 -24.851073 0.000000 0.000000 0.000000 -7.125000 0.000000 0.000000 -11.721543 55.649739 3.094600 0.000000 0.000000 0.000000 -0.485374 -3.885697 16.378799 -20.230571 -30.919104 -5.649344 -16.406128 0.487718 -9.895372 0.000000 0.000000 0.000000 7.125000 0.000000 0.000000 7.532428 19.718301 4.588733
